<svg id="line_icons" height="512" fill="#FFFFFF" viewBox="0 0 74 74" width="512" xmlns="http://www.w3.org/2000/svg" data-name="line icons"><path d="m66.929 57.781h-59.858a5.077 5.077 0 0 1 -5.071-5.071v-44.666a5.077 5.077 0 0 1 5.071-5.071h59.858a5.077 5.077 0 0 1 5.071 5.071v44.666a5.077 5.077 0 0 1 -5.071 5.071zm-59.858-52.808a3.074 3.074 0 0 0 -3.071 3.071v44.666a3.074 3.074 0 0 0 3.071 3.071h59.858a3.074 3.074 0 0 0 3.071-3.071v-44.666a3.074 3.074 0 0 0 -3.071-3.071z"/><path d="m71 44.013h-68a1 1 0 0 1 0-2h68a1 1 0 0 1 0 2z"/><path d="m48.294 66.685h-22.588a1 1 0 0 1 -.973-1.233l2.133-8.9a1 1 0 0 1 .972-.767h18.324a1 1 0 0 1 .972.767l2.133 8.9a1 1 0 0 1 -.973 1.233zm-21.32-2h20.052l-1.653-6.9h-16.746z"/><path d="m50 71.027h-25.995a3.171 3.171 0 1 1 0-6.342h25.995a3.171 3.171 0 1 1 0 6.342zm-25.99-4.342a1.171 1.171 0 1 0 0 2.342h25.99a1.171 1.171 0 1 0 0-2.342z"/><path d="m37 52.976a3.385 3.385 0 1 1 3.385-3.385 3.389 3.389 0 0 1 -3.385 3.385zm0-4.77a1.385 1.385 0 1 0 1.385 1.385 1.386 1.386 0 0 0 -1.385-1.385z"/><path d="m37 39.433c-4.437 0-7.913-7.028-7.913-16s3.476-16 7.913-16 7.913 7.028 7.913 16-3.476 16-7.913 16zm0-30.5c-3.476 0-6.413 6.64-6.413 14.5s2.937 14.5 6.413 14.5 6.413-6.64 6.413-14.5-2.937-14.5-6.413-14.5z"/><path d="m29.038 34.013c-2.758 0-4.895-.848-5.894-2.58-1.111-1.923-.624-4.559 1.369-7.423a26.805 26.805 0 0 1 8.53-7.429c7.771-4.487 15.6-4.99 17.813-1.148s-2.13 10.367-9.9 14.853a25.143 25.143 0 0 1 -11.918 3.727zm16-19.667a24.1 24.1 0 0 0 -11.243 3.533 25.3 25.3 0 0 0 -8.049 6.988c-1.619 2.325-2.093 4.445-1.3 5.816 1.737 3.009 8.957 2.234 15.765-1.7s11.088-9.794 9.351-12.8c-.72-1.239-2.362-1.837-4.526-1.837z"/><path d="m44.962 34.013a25.147 25.147 0 0 1 -11.919-3.727 26.819 26.819 0 0 1 -8.53-7.43c-1.993-2.864-2.48-5.5-1.369-7.423 2.218-3.843 10.043-3.34 17.813 1.148 7.769 4.485 12.118 11.009 9.9 14.852-1 1.731-3.138 2.58-5.895 2.58zm-16-19.667c-2.162 0-3.806.6-4.522 1.837-.791 1.371-.317 3.491 1.3 5.816a25.3 25.3 0 0 0 8.049 6.988c6.807 3.93 14.025 4.706 15.765 1.7s-2.545-8.874-9.351-12.8a24.1 24.1 0 0 0 -11.239-3.541z"/><path d="m37 27.827a4.394 4.394 0 1 1 4.4-4.394 4.4 4.4 0 0 1 -4.4 4.394zm0-7.288a2.894 2.894 0 1 0 2.9 2.894 2.9 2.9 0 0 0 -2.9-2.894z"/></svg>